# xmcd CD database file
#
# Track frame offsets:
#	150
#	18272
#	37648
#	55963
#	74619
#	89821
#	106806
#	142433
#	188406
#	215570
#	260234
#
# Disc length: 3942 seconds
#
# Revision: 0
# Processed by: cddbd v1.4PL0 Copyright (c) Steve Scherf et al.
# Submitted via: CDex 1.50beta9
#
DISCID=a50f640b
DTITLE=New York All-State Concert 2003 - Vocal Jazz Ensemble and Instrumental Jazz Ensemble
DYEAR=2003
DGENRE=Jazz
TTITLE0=Segment- C. Parker/Rob Wees
TTITLE1=Day by Day- arr. K. Marcy
TTITLE2=Here's That Rainy Day- arr. D. Barduhn
TTITLE3=Whisper Not- B. Golson/Michelle Weir
TTITLE4=Lucky Southern- K. Jarrett/V. Singh
TTITLE5=Jump Did le Ba- D. Gillespie/V. Singh
TTITLE6=Celebration Suite, II Slow Dance- Bob Brookmeyer
TTITLE7=Celebration Suite, IV Two And- Bob Brookmeyer
TTITLE8=Samba Siete- Hank Levy
TTITLE9=Exhiliration- Tom Davis
TTITLE10=Don't Get Sassy- Thad Jones
EXTD=YEAR: 2003
EXTT0=
EXTT1=
EXTT2=
EXTT3=
EXTT4=
EXTT5=
EXTT6=
EXTT7=
EXTT8=
EXTT9=
EXTT10=
PLAYORDER=
